<?xml version="1.0" encoding="UTF-8" standalone="no"?>
<!DOCTYPE svg PUBLIC "-//W3C//DTD SVG 1.1//EN"
 "http://www.w3.org/Graphics/SVG/1.1/DTD/svg11.dtd">
<!-- Generated by graphviz version 2.43.0 (0)
 -->
<!-- Title: snakemake_dag Pages: 1 -->
<svg width="1860pt" height="476pt"
 viewBox="0.00 0.00 1860.00 476.00" xmlns="http://www.w3.org/2000/svg" xmlns:xlink="http://www.w3.org/1999/xlink">
<g id="graph0" class="graph" transform="scale(1 1) rotate(0) translate(4 472)">
<title>snakemake_dag</title>
<polygon fill="white" stroke="transparent" points="-4,4 -4,-472 1856,-472 1856,4 -4,4"/>
<!-- 0 -->
<g id="node1" class="node">
<title>0</title>
<path fill="none" stroke="#56d8a9" stroke-width="2" d="M982.5,-36C982.5,-36 952.5,-36 952.5,-36 946.5,-36 940.5,-30 940.5,-24 940.5,-24 940.5,-12 940.5,-12 940.5,-6 946.5,0 952.5,0 952.5,0 982.5,0 982.5,0 988.5,0 994.5,-6 994.5,-12 994.5,-12 994.5,-24 994.5,-24 994.5,-30 988.5,-36 982.5,-36"/>
<text text-anchor="middle" x="967.5" y="-15.5" font-family="sans" font-size="10.00">all</text>
</g>
<!-- 1 -->
<g id="node2" class="node">
<title>1</title>
<path fill="none" stroke="#56d873" stroke-width="2" d="M986,-108C986,-108 949,-108 949,-108 943,-108 937,-102 937,-96 937,-96 937,-84 937,-84 937,-78 943,-72 949,-72 949,-72 986,-72 986,-72 992,-72 998,-78 998,-84 998,-84 998,-96 998,-96 998,-102 992,-108 986,-108"/>
<text text-anchor="middle" x="967.5" y="-87.5" font-family="sans" font-size="10.00">split_luts</text>
</g>
<!-- 1&#45;&gt;0 -->
<g id="edge1" class="edge">
<title>1&#45;&gt;0</title>
<path fill="none" stroke="grey" stroke-width="2" d="M967.5,-71.7C967.5,-63.98 967.5,-54.71 967.5,-46.11"/>
<polygon fill="grey" stroke="grey" stroke-width="2" points="971,-46.1 967.5,-36.1 964,-46.1 971,-46.1"/>
</g>
<!-- 2 -->
<g id="node3" class="node">
<title>2</title>
<path fill="none" stroke="#56c9d8" stroke-width="2" d="M1000.5,-180C1000.5,-180 934.5,-180 934.5,-180 928.5,-180 922.5,-174 922.5,-168 922.5,-168 922.5,-156 922.5,-156 922.5,-150 928.5,-144 934.5,-144 934.5,-144 1000.5,-144 1000.5,-144 1006.5,-144 1012.5,-150 1012.5,-156 1012.5,-156 1012.5,-168 1012.5,-168 1012.5,-174 1006.5,-180 1000.5,-180"/>
<text text-anchor="middle" x="967.5" y="-159.5" font-family="sans" font-size="10.00">patch_versions</text>
</g>
<!-- 2&#45;&gt;1 -->
<g id="edge2" class="edge">
<title>2&#45;&gt;1</title>
<path fill="none" stroke="grey" stroke-width="2" d="M967.5,-143.7C967.5,-135.98 967.5,-126.71 967.5,-118.11"/>
<polygon fill="grey" stroke="grey" stroke-width="2" points="971,-118.1 967.5,-108.1 964,-118.1 971,-118.1"/>
</g>
<!-- 3 -->
<g id="node4" class="node">
<title>3</title>
<path fill="none" stroke="#d88d56" stroke-width="2" d="M949,-252C949,-252 902,-252 902,-252 896,-252 890,-246 890,-240 890,-240 890,-228 890,-228 890,-222 896,-216 902,-216 902,-216 949,-216 949,-216 955,-216 961,-222 961,-228 961,-228 961,-240 961,-240 961,-246 955,-252 949,-252"/>
<text text-anchor="middle" x="925.5" y="-231.5" font-family="sans" font-size="10.00">merge_luts</text>
</g>
<!-- 3&#45;&gt;2 -->
<g id="edge3" class="edge">
<title>3&#45;&gt;2</title>
<path fill="none" stroke="grey" stroke-width="2" d="M935.88,-215.7C940.76,-207.56 946.69,-197.69 952.08,-188.7"/>
<polygon fill="grey" stroke="grey" stroke-width="2" points="955.09,-190.48 957.24,-180.1 949.09,-186.88 955.09,-190.48"/>
</g>
<!-- 4 -->
<g id="node5" class="node">
<title>4</title>
<path fill="none" stroke="#afd856" stroke-width="2" d="M253,-324C253,-324 212,-324 212,-324 206,-324 200,-318 200,-312 200,-312 200,-300 200,-300 200,-294 206,-288 212,-288 212,-288 253,-288 253,-288 259,-288 265,-294 265,-300 265,-300 265,-312 265,-312 265,-318 259,-324 253,-324"/>
<text text-anchor="middle" x="232.5" y="-303.5" font-family="sans" font-size="10.00">write_luts</text>
</g>
<!-- 4&#45;&gt;3 -->
<g id="edge5" class="edge">
<title>4&#45;&gt;3</title>
<path fill="none" stroke="grey" stroke-width="2" d="M265.17,-296.57C278.25,-293.46 293.52,-290.17 307.5,-288 519.94,-254.97 776.89,-241.23 879.72,-236.77"/>
<polygon fill="grey" stroke="grey" stroke-width="2" points="879.92,-240.27 889.76,-236.35 879.62,-233.27 879.92,-240.27"/>
</g>
<!-- 5 -->
<g id="node6" class="node">
<title>5</title>
<path fill="none" stroke="#5692d8" stroke-width="2" d="M183.5,-396C183.5,-396 109.5,-396 109.5,-396 103.5,-396 97.5,-390 97.5,-384 97.5,-384 97.5,-372 97.5,-372 97.5,-366 103.5,-360 109.5,-360 109.5,-360 183.5,-360 183.5,-360 189.5,-360 195.5,-366 195.5,-372 195.5,-372 195.5,-384 195.5,-384 195.5,-390 189.5,-396 183.5,-396"/>
<text text-anchor="middle" x="146.5" y="-375.5" font-family="sans" font-size="10.00">extract_archives</text>
</g>
<!-- 5&#45;&gt;4 -->
<g id="edge15" class="edge">
<title>5&#45;&gt;4</title>
<path fill="none" stroke="grey" stroke-width="2" d="M167.76,-359.7C178.59,-350.88 191.92,-340.03 203.66,-330.47"/>
<polygon fill="grey" stroke="grey" stroke-width="2" points="205.94,-333.13 211.49,-324.1 201.52,-327.7 205.94,-333.13"/>
</g>
<!-- 6 -->
<g id="node7" class="node">
<title>6</title>
<path fill="none" stroke="#d85656" stroke-width="2" d="M157,-468C157,-468 12,-468 12,-468 6,-468 0,-462 0,-456 0,-456 0,-444 0,-444 0,-438 6,-432 12,-432 12,-432 157,-432 157,-432 163,-432 169,-438 169,-444 169,-444 169,-456 169,-456 169,-462 163,-468 157,-468"/>
<text text-anchor="middle" x="84.5" y="-453" font-family="sans" font-size="10.00">bulk_download_pmc_metadata</text>
<text text-anchor="middle" x="84.5" y="-442" font-family="sans" font-size="10.00">subset: 001</text>
</g>
<!-- 6&#45;&gt;5 -->
<g id="edge16" class="edge">
<title>6&#45;&gt;5</title>
<path fill="none" stroke="grey" stroke-width="2" d="M99.83,-431.7C107.26,-423.3 116.32,-413.07 124.48,-403.86"/>
<polygon fill="grey" stroke="grey" stroke-width="2" points="127.34,-405.91 131.35,-396.1 122.1,-401.27 127.34,-405.91"/>
</g>
<!-- 7 -->
<g id="node8" class="node">
<title>7</title>
<path fill="none" stroke="#afd856" stroke-width="2" d="M370,-324C370,-324 329,-324 329,-324 323,-324 317,-318 317,-312 317,-312 317,-300 317,-300 317,-294 323,-288 329,-288 329,-288 370,-288 370,-288 376,-288 382,-294 382,-300 382,-300 382,-312 382,-312 382,-318 376,-324 370,-324"/>
<text text-anchor="middle" x="349.5" y="-303.5" font-family="sans" font-size="10.00">write_luts</text>
</g>
<!-- 7&#45;&gt;3 -->
<g id="edge6" class="edge">
<title>7&#45;&gt;3</title>
<path fill="none" stroke="grey" stroke-width="2" d="M382.12,-301.04C479.39,-289.21 767.66,-254.18 879.98,-240.53"/>
<polygon fill="grey" stroke="grey" stroke-width="2" points="880.47,-244 889.97,-239.32 879.62,-237.05 880.47,-244"/>
</g>
<!-- 8 -->
<g id="node9" class="node">
<title>8</title>
<path fill="none" stroke="#5692d8" stroke-width="2" d="M334.5,-396C334.5,-396 260.5,-396 260.5,-396 254.5,-396 248.5,-390 248.5,-384 248.5,-384 248.5,-372 248.5,-372 248.5,-366 254.5,-360 260.5,-360 260.5,-360 334.5,-360 334.5,-360 340.5,-360 346.5,-366 346.5,-372 346.5,-372 346.5,-384 346.5,-384 346.5,-390 340.5,-396 334.5,-396"/>
<text text-anchor="middle" x="297.5" y="-375.5" font-family="sans" font-size="10.00">extract_archives</text>
</g>
<!-- 8&#45;&gt;7 -->
<g id="edge17" class="edge">
<title>8&#45;&gt;7</title>
<path fill="none" stroke="grey" stroke-width="2" d="M310.35,-359.7C316.53,-351.39 324.04,-341.28 330.82,-332.14"/>
<polygon fill="grey" stroke="grey" stroke-width="2" points="333.64,-334.22 336.79,-324.1 328.02,-330.04 333.64,-334.22"/>
</g>
<!-- 9 -->
<g id="node10" class="node">
<title>9</title>
<path fill="none" stroke="#d85656" stroke-width="2" d="M344,-468C344,-468 199,-468 199,-468 193,-468 187,-462 187,-456 187,-456 187,-444 187,-444 187,-438 193,-432 199,-432 199,-432 344,-432 344,-432 350,-432 356,-438 356,-444 356,-444 356,-456 356,-456 356,-462 350,-468 344,-468"/>
<text text-anchor="middle" x="271.5" y="-453" font-family="sans" font-size="10.00">bulk_download_pmc_metadata</text>
<text text-anchor="middle" x="271.5" y="-442" font-family="sans" font-size="10.00">subset: 002</text>
</g>
<!-- 9&#45;&gt;8 -->
<g id="edge18" class="edge">
<title>9&#45;&gt;8</title>
<path fill="none" stroke="grey" stroke-width="2" d="M277.93,-431.7C280.86,-423.81 284.39,-414.3 287.64,-405.55"/>
<polygon fill="grey" stroke="grey" stroke-width="2" points="290.95,-406.7 291.15,-396.1 284.38,-404.26 290.95,-406.7"/>
</g>
<!-- 10 -->
<g id="node11" class="node">
<title>10</title>
<path fill="none" stroke="#afd856" stroke-width="2" d="M557,-324C557,-324 516,-324 516,-324 510,-324 504,-318 504,-312 504,-312 504,-300 504,-300 504,-294 510,-288 516,-288 516,-288 557,-288 557,-288 563,-288 569,-294 569,-300 569,-300 569,-312 569,-312 569,-318 563,-324 557,-324"/>
<text text-anchor="middle" x="536.5" y="-303.5" font-family="sans" font-size="10.00">write_luts</text>
</g>
<!-- 10&#45;&gt;3 -->
<g id="edge7" class="edge">
<title>10&#45;&gt;3</title>
<path fill="none" stroke="grey" stroke-width="2" d="M569.33,-299.09C638.66,-286.62 800.14,-257.56 879.63,-243.25"/>
<polygon fill="grey" stroke="grey" stroke-width="2" points="880.6,-246.64 889.82,-241.42 879.36,-239.75 880.6,-246.64"/>
</g>
<!-- 11 -->
<g id="node12" class="node">
<title>11</title>
<path fill="none" stroke="#5692d8" stroke-width="2" d="M521.5,-396C521.5,-396 447.5,-396 447.5,-396 441.5,-396 435.5,-390 435.5,-384 435.5,-384 435.5,-372 435.5,-372 435.5,-366 441.5,-360 447.5,-360 447.5,-360 521.5,-360 521.5,-360 527.5,-360 533.5,-366 533.5,-372 533.5,-372 533.5,-384 533.5,-384 533.5,-390 527.5,-396 521.5,-396"/>
<text text-anchor="middle" x="484.5" y="-375.5" font-family="sans" font-size="10.00">extract_archives</text>
</g>
<!-- 11&#45;&gt;10 -->
<g id="edge19" class="edge">
<title>11&#45;&gt;10</title>
<path fill="none" stroke="grey" stroke-width="2" d="M497.35,-359.7C503.53,-351.39 511.04,-341.28 517.82,-332.14"/>
<polygon fill="grey" stroke="grey" stroke-width="2" points="520.64,-334.22 523.79,-324.1 515.02,-330.04 520.64,-334.22"/>
</g>
<!-- 12 -->
<g id="node13" class="node">
<title>12</title>
<path fill="none" stroke="#d85656" stroke-width="2" d="M531,-468C531,-468 386,-468 386,-468 380,-468 374,-462 374,-456 374,-456 374,-444 374,-444 374,-438 380,-432 386,-432 386,-432 531,-432 531,-432 537,-432 543,-438 543,-444 543,-444 543,-456 543,-456 543,-462 537,-468 531,-468"/>
<text text-anchor="middle" x="458.5" y="-453" font-family="sans" font-size="10.00">bulk_download_pmc_metadata</text>
<text text-anchor="middle" x="458.5" y="-442" font-family="sans" font-size="10.00">subset: 003</text>
</g>
<!-- 12&#45;&gt;11 -->
<g id="edge20" class="edge">
<title>12&#45;&gt;11</title>
<path fill="none" stroke="grey" stroke-width="2" d="M464.93,-431.7C467.86,-423.81 471.39,-414.3 474.64,-405.55"/>
<polygon fill="grey" stroke="grey" stroke-width="2" points="477.95,-406.7 478.15,-396.1 471.38,-404.26 477.95,-406.7"/>
</g>
<!-- 13 -->
<g id="node14" class="node">
<title>13</title>
<path fill="none" stroke="#afd856" stroke-width="2" d="M752,-324C752,-324 711,-324 711,-324 705,-324 699,-318 699,-312 699,-312 699,-300 699,-300 699,-294 705,-288 711,-288 711,-288 752,-288 752,-288 758,-288 764,-294 764,-300 764,-300 764,-312 764,-312 764,-318 758,-324 752,-324"/>
<text text-anchor="middle" x="731.5" y="-303.5" font-family="sans" font-size="10.00">write_luts</text>
</g>
<!-- 13&#45;&gt;3 -->
<g id="edge8" class="edge">
<title>13&#45;&gt;3</title>
<path fill="none" stroke="grey" stroke-width="2" d="M764.41,-293.13C796.23,-281.64 844.7,-264.16 880.16,-251.36"/>
<polygon fill="grey" stroke="grey" stroke-width="2" points="881.58,-254.57 889.79,-247.88 879.2,-247.99 881.58,-254.57"/>
</g>
<!-- 14 -->
<g id="node15" class="node">
<title>14</title>
<path fill="none" stroke="#5692d8" stroke-width="2" d="M716.5,-396C716.5,-396 642.5,-396 642.5,-396 636.5,-396 630.5,-390 630.5,-384 630.5,-384 630.5,-372 630.5,-372 630.5,-366 636.5,-360 642.5,-360 642.5,-360 716.5,-360 716.5,-360 722.5,-360 728.5,-366 728.5,-372 728.5,-372 728.5,-384 728.5,-384 728.5,-390 722.5,-396 716.5,-396"/>
<text text-anchor="middle" x="679.5" y="-375.5" font-family="sans" font-size="10.00">extract_archives</text>
</g>
<!-- 14&#45;&gt;13 -->
<g id="edge21" class="edge">
<title>14&#45;&gt;13</title>
<path fill="none" stroke="grey" stroke-width="2" d="M692.35,-359.7C698.53,-351.39 706.04,-341.28 712.82,-332.14"/>
<polygon fill="grey" stroke="grey" stroke-width="2" points="715.64,-334.22 718.79,-324.1 710.02,-330.04 715.64,-334.22"/>
</g>
<!-- 15 -->
<g id="node16" class="node">
<title>15</title>
<path fill="none" stroke="#d85656" stroke-width="2" d="M718,-468C718,-468 573,-468 573,-468 567,-468 561,-462 561,-456 561,-456 561,-444 561,-444 561,-438 567,-432 573,-432 573,-432 718,-432 718,-432 724,-432 730,-438 730,-444 730,-444 730,-456 730,-456 730,-462 724,-468 718,-468"/>
<text text-anchor="middle" x="645.5" y="-453" font-family="sans" font-size="10.00">bulk_download_pmc_metadata</text>
<text text-anchor="middle" x="645.5" y="-442" font-family="sans" font-size="10.00">subset: 004</text>
</g>
<!-- 15&#45;&gt;14 -->
<g id="edge22" class="edge">
<title>15&#45;&gt;14</title>
<path fill="none" stroke="grey" stroke-width="2" d="M653.9,-431.7C657.77,-423.73 662.45,-414.1 666.74,-405.26"/>
<polygon fill="grey" stroke="grey" stroke-width="2" points="669.97,-406.63 671.19,-396.1 663.67,-403.57 669.97,-406.63"/>
</g>
<!-- 16 -->
<g id="node17" class="node">
<title>16</title>
<path fill="none" stroke="#afd856" stroke-width="2" d="M888,-324C888,-324 847,-324 847,-324 841,-324 835,-318 835,-312 835,-312 835,-300 835,-300 835,-294 841,-288 847,-288 847,-288 888,-288 888,-288 894,-288 900,-294 900,-300 900,-300 900,-312 900,-312 900,-318 894,-324 888,-324"/>
<text text-anchor="middle" x="867.5" y="-303.5" font-family="sans" font-size="10.00">write_luts</text>
</g>
<!-- 16&#45;&gt;3 -->
<g id="edge9" class="edge">
<title>16&#45;&gt;3</title>
<path fill="none" stroke="grey" stroke-width="2" d="M881.84,-287.7C888.79,-279.3 897.27,-269.07 904.9,-259.86"/>
<polygon fill="grey" stroke="grey" stroke-width="2" points="907.64,-262.04 911.33,-252.1 902.25,-257.57 907.64,-262.04"/>
</g>
<!-- 17 -->
<g id="node18" class="node">
<title>17</title>
<path fill="none" stroke="#5692d8" stroke-width="2" d="M887.5,-396C887.5,-396 813.5,-396 813.5,-396 807.5,-396 801.5,-390 801.5,-384 801.5,-384 801.5,-372 801.5,-372 801.5,-366 807.5,-360 813.5,-360 813.5,-360 887.5,-360 887.5,-360 893.5,-360 899.5,-366 899.5,-372 899.5,-372 899.5,-384 899.5,-384 899.5,-390 893.5,-396 887.5,-396"/>
<text text-anchor="middle" x="850.5" y="-375.5" font-family="sans" font-size="10.00">extract_archives</text>
</g>
<!-- 17&#45;&gt;16 -->
<g id="edge23" class="edge">
<title>17&#45;&gt;16</title>
<path fill="none" stroke="grey" stroke-width="2" d="M854.7,-359.7C856.6,-351.9 858.88,-342.51 860.98,-333.83"/>
<polygon fill="grey" stroke="grey" stroke-width="2" points="864.39,-334.65 863.35,-324.1 857.58,-333 864.39,-334.65"/>
</g>
<!-- 18 -->
<g id="node19" class="node">
<title>18</title>
<path fill="none" stroke="#d85656" stroke-width="2" d="M905,-468C905,-468 760,-468 760,-468 754,-468 748,-462 748,-456 748,-456 748,-444 748,-444 748,-438 754,-432 760,-432 760,-432 905,-432 905,-432 911,-432 917,-438 917,-444 917,-444 917,-456 917,-456 917,-462 911,-468 905,-468"/>
<text text-anchor="middle" x="832.5" y="-453" font-family="sans" font-size="10.00">bulk_download_pmc_metadata</text>
<text text-anchor="middle" x="832.5" y="-442" font-family="sans" font-size="10.00">subset: 005</text>
</g>
<!-- 18&#45;&gt;17 -->
<g id="edge24" class="edge">
<title>18&#45;&gt;17</title>
<path fill="none" stroke="grey" stroke-width="2" d="M836.95,-431.7C838.95,-423.9 841.37,-414.51 843.6,-405.83"/>
<polygon fill="grey" stroke="grey" stroke-width="2" points="847,-406.66 846.1,-396.1 840.22,-404.92 847,-406.66"/>
</g>
<!-- 19 -->
<g id="node20" class="node">
<title>19</title>
<path fill="none" stroke="#afd856" stroke-width="2" d="M1005,-324C1005,-324 964,-324 964,-324 958,-324 952,-318 952,-312 952,-312 952,-300 952,-300 952,-294 958,-288 964,-288 964,-288 1005,-288 1005,-288 1011,-288 1017,-294 1017,-300 1017,-300 1017,-312 1017,-312 1017,-318 1011,-324 1005,-324"/>
<text text-anchor="middle" x="984.5" y="-303.5" font-family="sans" font-size="10.00">write_luts</text>
</g>
<!-- 19&#45;&gt;3 -->
<g id="edge10" class="edge">
<title>19&#45;&gt;3</title>
<path fill="none" stroke="grey" stroke-width="2" d="M969.92,-287.7C962.84,-279.3 954.22,-269.07 946.45,-259.86"/>
<polygon fill="grey" stroke="grey" stroke-width="2" points="949.04,-257.49 939.92,-252.1 943.69,-262.01 949.04,-257.49"/>
</g>
<!-- 20 -->
<g id="node21" class="node">
<title>20</title>
<path fill="none" stroke="#5692d8" stroke-width="2" d="M1038.5,-396C1038.5,-396 964.5,-396 964.5,-396 958.5,-396 952.5,-390 952.5,-384 952.5,-384 952.5,-372 952.5,-372 952.5,-366 958.5,-360 964.5,-360 964.5,-360 1038.5,-360 1038.5,-360 1044.5,-360 1050.5,-366 1050.5,-372 1050.5,-372 1050.5,-384 1050.5,-384 1050.5,-390 1044.5,-396 1038.5,-396"/>
<text text-anchor="middle" x="1001.5" y="-375.5" font-family="sans" font-size="10.00">extract_archives</text>
</g>
<!-- 20&#45;&gt;19 -->
<g id="edge25" class="edge">
<title>20&#45;&gt;19</title>
<path fill="none" stroke="grey" stroke-width="2" d="M997.3,-359.7C995.4,-351.9 993.12,-342.51 991.02,-333.83"/>
<polygon fill="grey" stroke="grey" stroke-width="2" points="994.42,-333 988.65,-324.1 987.61,-334.65 994.42,-333"/>
</g>
<!-- 21 -->
<g id="node22" class="node">
<title>21</title>
<path fill="none" stroke="#d85656" stroke-width="2" d="M1092,-468C1092,-468 947,-468 947,-468 941,-468 935,-462 935,-456 935,-456 935,-444 935,-444 935,-438 941,-432 947,-432 947,-432 1092,-432 1092,-432 1098,-432 1104,-438 1104,-444 1104,-444 1104,-456 1104,-456 1104,-462 1098,-468 1092,-468"/>
<text text-anchor="middle" x="1019.5" y="-453" font-family="sans" font-size="10.00">bulk_download_pmc_metadata</text>
<text text-anchor="middle" x="1019.5" y="-442" font-family="sans" font-size="10.00">subset: 006</text>
</g>
<!-- 21&#45;&gt;20 -->
<g id="edge26" class="edge">
<title>21&#45;&gt;20</title>
<path fill="none" stroke="grey" stroke-width="2" d="M1015.05,-431.7C1013.05,-423.9 1010.63,-414.51 1008.4,-405.83"/>
<polygon fill="grey" stroke="grey" stroke-width="2" points="1011.78,-404.92 1005.9,-396.1 1005,-406.66 1011.78,-404.92"/>
</g>
<!-- 22 -->
<g id="node23" class="node">
<title>22</title>
<path fill="none" stroke="#afd856" stroke-width="2" d="M1148,-324C1148,-324 1107,-324 1107,-324 1101,-324 1095,-318 1095,-312 1095,-312 1095,-300 1095,-300 1095,-294 1101,-288 1107,-288 1107,-288 1148,-288 1148,-288 1154,-288 1160,-294 1160,-300 1160,-300 1160,-312 1160,-312 1160,-318 1154,-324 1148,-324"/>
<text text-anchor="middle" x="1127.5" y="-303.5" font-family="sans" font-size="10.00">write_luts</text>
</g>
<!-- 22&#45;&gt;3 -->
<g id="edge11" class="edge">
<title>22&#45;&gt;3</title>
<path fill="none" stroke="grey" stroke-width="2" d="M1094.97,-294.56C1064.93,-284.82 1018.85,-269.61 971.05,-252.5"/>
<polygon fill="grey" stroke="grey" stroke-width="2" points="972.06,-249.14 961.47,-249.05 969.69,-255.73 972.06,-249.14"/>
</g>
<!-- 23 -->
<g id="node24" class="node">
<title>23</title>
<path fill="none" stroke="#5692d8" stroke-width="2" d="M1207.5,-396C1207.5,-396 1133.5,-396 1133.5,-396 1127.5,-396 1121.5,-390 1121.5,-384 1121.5,-384 1121.5,-372 1121.5,-372 1121.5,-366 1127.5,-360 1133.5,-360 1133.5,-360 1207.5,-360 1207.5,-360 1213.5,-360 1219.5,-366 1219.5,-372 1219.5,-372 1219.5,-384 1219.5,-384 1219.5,-390 1213.5,-396 1207.5,-396"/>
<text text-anchor="middle" x="1170.5" y="-375.5" font-family="sans" font-size="10.00">extract_archives</text>
</g>
<!-- 23&#45;&gt;22 -->
<g id="edge27" class="edge">
<title>23&#45;&gt;22</title>
<path fill="none" stroke="grey" stroke-width="2" d="M1159.87,-359.7C1154.87,-351.56 1148.81,-341.69 1143.29,-332.7"/>
<polygon fill="grey" stroke="grey" stroke-width="2" points="1146.22,-330.79 1138.01,-324.1 1140.26,-334.46 1146.22,-330.79"/>
</g>
<!-- 24 -->
<g id="node25" class="node">
<title>24</title>
<path fill="none" stroke="#d85656" stroke-width="2" d="M1279,-468C1279,-468 1134,-468 1134,-468 1128,-468 1122,-462 1122,-456 1122,-456 1122,-444 1122,-444 1122,-438 1128,-432 1134,-432 1134,-432 1279,-432 1279,-432 1285,-432 1291,-438 1291,-444 1291,-444 1291,-456 1291,-456 1291,-462 1285,-468 1279,-468"/>
<text text-anchor="middle" x="1206.5" y="-453" font-family="sans" font-size="10.00">bulk_download_pmc_metadata</text>
<text text-anchor="middle" x="1206.5" y="-442" font-family="sans" font-size="10.00">subset: 007</text>
</g>
<!-- 24&#45;&gt;23 -->
<g id="edge28" class="edge">
<title>24&#45;&gt;23</title>
<path fill="none" stroke="grey" stroke-width="2" d="M1197.6,-431.7C1193.5,-423.73 1188.55,-414.1 1184.01,-405.26"/>
<polygon fill="grey" stroke="grey" stroke-width="2" points="1186.98,-403.4 1179.3,-396.1 1180.76,-406.6 1186.98,-403.4"/>
</g>
<!-- 25 -->
<g id="node26" class="node">
<title>25</title>
<path fill="none" stroke="#afd856" stroke-width="2" d="M1308,-324C1308,-324 1267,-324 1267,-324 1261,-324 1255,-318 1255,-312 1255,-312 1255,-300 1255,-300 1255,-294 1261,-288 1267,-288 1267,-288 1308,-288 1308,-288 1314,-288 1320,-294 1320,-300 1320,-300 1320,-312 1320,-312 1320,-318 1314,-324 1308,-324"/>
<text text-anchor="middle" x="1287.5" y="-303.5" font-family="sans" font-size="10.00">write_luts</text>
</g>
<!-- 25&#45;&gt;3 -->
<g id="edge12" class="edge">
<title>25&#45;&gt;3</title>
<path fill="none" stroke="grey" stroke-width="2" d="M1254.95,-300.43C1188.58,-290.99 1038.75,-268.97 971.07,-252.08"/>
<polygon fill="grey" stroke="grey" stroke-width="2" points="971.88,-248.67 961.32,-249.52 970.1,-255.45 971.88,-248.67"/>
</g>
<!-- 26 -->
<g id="node27" class="node">
<title>26</title>
<path fill="none" stroke="#5692d8" stroke-width="2" d="M1385.5,-396C1385.5,-396 1311.5,-396 1311.5,-396 1305.5,-396 1299.5,-390 1299.5,-384 1299.5,-384 1299.5,-372 1299.5,-372 1299.5,-366 1305.5,-360 1311.5,-360 1311.5,-360 1385.5,-360 1385.5,-360 1391.5,-360 1397.5,-366 1397.5,-372 1397.5,-372 1397.5,-384 1397.5,-384 1397.5,-390 1391.5,-396 1385.5,-396"/>
<text text-anchor="middle" x="1348.5" y="-375.5" font-family="sans" font-size="10.00">extract_archives</text>
</g>
<!-- 26&#45;&gt;25 -->
<g id="edge29" class="edge">
<title>26&#45;&gt;25</title>
<path fill="none" stroke="grey" stroke-width="2" d="M1333.42,-359.7C1326.11,-351.3 1317.19,-341.07 1309.16,-331.86"/>
<polygon fill="grey" stroke="grey" stroke-width="2" points="1311.61,-329.34 1302.41,-324.1 1306.34,-333.94 1311.61,-329.34"/>
</g>
<!-- 27 -->
<g id="node28" class="node">
<title>27</title>
<path fill="none" stroke="#d85656" stroke-width="2" d="M1466,-468C1466,-468 1321,-468 1321,-468 1315,-468 1309,-462 1309,-456 1309,-456 1309,-444 1309,-444 1309,-438 1315,-432 1321,-432 1321,-432 1466,-432 1466,-432 1472,-432 1478,-438 1478,-444 1478,-444 1478,-456 1478,-456 1478,-462 1472,-468 1466,-468"/>
<text text-anchor="middle" x="1393.5" y="-453" font-family="sans" font-size="10.00">bulk_download_pmc_metadata</text>
<text text-anchor="middle" x="1393.5" y="-442" font-family="sans" font-size="10.00">subset: 008</text>
</g>
<!-- 27&#45;&gt;26 -->
<g id="edge30" class="edge">
<title>27&#45;&gt;26</title>
<path fill="none" stroke="grey" stroke-width="2" d="M1382.38,-431.7C1377.14,-423.56 1370.8,-413.69 1365.02,-404.7"/>
<polygon fill="grey" stroke="grey" stroke-width="2" points="1367.85,-402.62 1359.5,-396.1 1361.96,-406.41 1367.85,-402.62"/>
</g>
<!-- 28 -->
<g id="node29" class="node">
<title>28</title>
<path fill="none" stroke="#afd856" stroke-width="2" d="M1480,-324C1480,-324 1439,-324 1439,-324 1433,-324 1427,-318 1427,-312 1427,-312 1427,-300 1427,-300 1427,-294 1433,-288 1439,-288 1439,-288 1480,-288 1480,-288 1486,-288 1492,-294 1492,-300 1492,-300 1492,-312 1492,-312 1492,-318 1486,-324 1480,-324"/>
<text text-anchor="middle" x="1459.5" y="-303.5" font-family="sans" font-size="10.00">write_luts</text>
</g>
<!-- 28&#45;&gt;3 -->
<g id="edge13" class="edge">
<title>28&#45;&gt;3</title>
<path fill="none" stroke="grey" stroke-width="2" d="M1426.96,-300.51C1400.47,-296.92 1362.11,-291.86 1328.5,-288 1172.46,-270.06 1127.32,-288.45 971.22,-252.08"/>
<polygon fill="grey" stroke="grey" stroke-width="2" points="971.81,-248.62 961.27,-249.72 970.19,-255.43 971.81,-248.62"/>
</g>
<!-- 29 -->
<g id="node30" class="node">
<title>29</title>
<path fill="none" stroke="#5692d8" stroke-width="2" d="M1568.5,-396C1568.5,-396 1494.5,-396 1494.5,-396 1488.5,-396 1482.5,-390 1482.5,-384 1482.5,-384 1482.5,-372 1482.5,-372 1482.5,-366 1488.5,-360 1494.5,-360 1494.5,-360 1568.5,-360 1568.5,-360 1574.5,-360 1580.5,-366 1580.5,-372 1580.5,-372 1580.5,-384 1580.5,-384 1580.5,-390 1574.5,-396 1568.5,-396"/>
<text text-anchor="middle" x="1531.5" y="-375.5" font-family="sans" font-size="10.00">extract_archives</text>
</g>
<!-- 29&#45;&gt;28 -->
<g id="edge31" class="edge">
<title>29&#45;&gt;28</title>
<path fill="none" stroke="grey" stroke-width="2" d="M1513.7,-359.7C1504.9,-351.14 1494.12,-340.66 1484.5,-331.3"/>
<polygon fill="grey" stroke="grey" stroke-width="2" points="1486.7,-328.57 1477.09,-324.1 1481.82,-333.58 1486.7,-328.57"/>
</g>
<!-- 30 -->
<g id="node31" class="node">
<title>30</title>
<path fill="none" stroke="#d85656" stroke-width="2" d="M1653,-468C1653,-468 1508,-468 1508,-468 1502,-468 1496,-462 1496,-456 1496,-456 1496,-444 1496,-444 1496,-438 1502,-432 1508,-432 1508,-432 1653,-432 1653,-432 1659,-432 1665,-438 1665,-444 1665,-444 1665,-456 1665,-456 1665,-462 1659,-468 1653,-468"/>
<text text-anchor="middle" x="1580.5" y="-453" font-family="sans" font-size="10.00">bulk_download_pmc_metadata</text>
<text text-anchor="middle" x="1580.5" y="-442" font-family="sans" font-size="10.00">subset: 009</text>
</g>
<!-- 30&#45;&gt;29 -->
<g id="edge32" class="edge">
<title>30&#45;&gt;29</title>
<path fill="none" stroke="grey" stroke-width="2" d="M1568.39,-431.7C1562.63,-423.47 1555.64,-413.48 1549.29,-404.42"/>
<polygon fill="grey" stroke="grey" stroke-width="2" points="1552.08,-402.29 1543.47,-396.1 1546.34,-406.3 1552.08,-402.29"/>
</g>
<!-- 31 -->
<g id="node32" class="node">
<title>31</title>
<path fill="none" stroke="#afd856" stroke-width="2" d="M1658,-324C1658,-324 1617,-324 1617,-324 1611,-324 1605,-318 1605,-312 1605,-312 1605,-300 1605,-300 1605,-294 1611,-288 1617,-288 1617,-288 1658,-288 1658,-288 1664,-288 1670,-294 1670,-300 1670,-300 1670,-312 1670,-312 1670,-318 1664,-324 1658,-324"/>
<text text-anchor="middle" x="1637.5" y="-303.5" font-family="sans" font-size="10.00">write_luts</text>
</g>
<!-- 31&#45;&gt;3 -->
<g id="edge14" class="edge">
<title>31&#45;&gt;3</title>
<path fill="none" stroke="grey" stroke-width="2" d="M1604.89,-300.43C1577.17,-296.68 1536.29,-291.43 1500.5,-288 1268.37,-265.75 1202.3,-302.15 971.3,-252.03"/>
<polygon fill="grey" stroke="grey" stroke-width="2" points="971.76,-248.55 961.25,-249.82 970.26,-255.39 971.76,-248.55"/>
</g>
<!-- 32 -->
<g id="node33" class="node">
<title>32</title>
<path fill="none" stroke="#5692d8" stroke-width="2" d="M1753.5,-396C1753.5,-396 1679.5,-396 1679.5,-396 1673.5,-396 1667.5,-390 1667.5,-384 1667.5,-384 1667.5,-372 1667.5,-372 1667.5,-366 1673.5,-360 1679.5,-360 1679.5,-360 1753.5,-360 1753.5,-360 1759.5,-360 1765.5,-366 1765.5,-372 1765.5,-372 1765.5,-384 1765.5,-384 1765.5,-390 1759.5,-396 1753.5,-396"/>
<text text-anchor="middle" x="1716.5" y="-375.5" font-family="sans" font-size="10.00">extract_archives</text>
</g>
<!-- 32&#45;&gt;31 -->
<g id="edge33" class="edge">
<title>32&#45;&gt;31</title>
<path fill="none" stroke="grey" stroke-width="2" d="M1696.97,-359.7C1687.12,-350.97 1675.01,-340.24 1664.3,-330.75"/>
<polygon fill="grey" stroke="grey" stroke-width="2" points="1666.61,-328.12 1656.8,-324.1 1661.97,-333.36 1666.61,-328.12"/>
</g>
<!-- 33 -->
<g id="node34" class="node">
<title>33</title>
<path fill="none" stroke="#d85656" stroke-width="2" d="M1840,-468C1840,-468 1695,-468 1695,-468 1689,-468 1683,-462 1683,-456 1683,-456 1683,-444 1683,-444 1683,-438 1689,-432 1695,-432 1695,-432 1840,-432 1840,-432 1846,-432 1852,-438 1852,-444 1852,-444 1852,-456 1852,-456 1852,-462 1846,-468 1840,-468"/>
<text text-anchor="middle" x="1767.5" y="-453" font-family="sans" font-size="10.00">bulk_download_pmc_metadata</text>
<text text-anchor="middle" x="1767.5" y="-442" font-family="sans" font-size="10.00">subset: 010</text>
</g>
<!-- 33&#45;&gt;32 -->
<g id="edge34" class="edge">
<title>33&#45;&gt;32</title>
<path fill="none" stroke="grey" stroke-width="2" d="M1754.89,-431.7C1748.9,-423.47 1741.62,-413.48 1735.02,-404.42"/>
<polygon fill="grey" stroke="grey" stroke-width="2" points="1737.68,-402.13 1728.96,-396.1 1732.02,-406.25 1737.68,-402.13"/>
</g>
<!-- 34 -->
<g id="node35" class="node">
<title>34</title>
<path fill="none" stroke="#d8cb56" stroke-width="2" d="M1028,-252C1028,-252 991,-252 991,-252 985,-252 979,-246 979,-240 979,-240 979,-228 979,-228 979,-222 985,-216 991,-216 991,-216 1028,-216 1028,-216 1034,-216 1040,-222 1040,-228 1040,-228 1040,-240 1040,-240 1040,-246 1034,-252 1028,-252"/>
<text text-anchor="middle" x="1009.5" y="-231.5" font-family="sans" font-size="10.00">clone_git</text>
</g>
<!-- 34&#45;&gt;2 -->
<g id="edge4" class="edge">
<title>34&#45;&gt;2</title>
<path fill="none" stroke="grey" stroke-width="2" d="M999.12,-215.7C994.24,-207.56 988.31,-197.69 982.92,-188.7"/>
<polygon fill="grey" stroke="grey" stroke-width="2" points="985.91,-186.88 977.76,-180.1 979.91,-190.48 985.91,-186.88"/>
</g>
</g>
</svg>
