<?xml version="1.0" encoding="UTF-8" standalone="no"?>
<!DOCTYPE svg PUBLIC "-//W3C//DTD SVG 1.1//EN"
 "http://www.w3.org/Graphics/SVG/1.1/DTD/svg11.dtd">
<!-- Generated by graphviz version 2.43.0 (0)
 -->
<!-- Title: snakemake_dag Pages: 1 -->
<svg width="207pt" height="476pt"
 viewBox="0.00 0.00 207.00 476.00" xmlns="http://www.w3.org/2000/svg" xmlns:xlink="http://www.w3.org/1999/xlink">
<g id="graph0" class="graph" transform="scale(1 1) rotate(0) translate(4 472)">
<title>snakemake_dag</title>
<polygon fill="white" stroke="transparent" points="-4,4 -4,-472 203,-472 203,4 -4,4"/>
<!-- 0 -->
<g id="node1" class="node">
<title>0</title>
<path fill="none" stroke="#70d856" stroke-width="2" d="M141.5,-36C141.5,-36 111.5,-36 111.5,-36 105.5,-36 99.5,-30 99.5,-24 99.5,-24 99.5,-12 99.5,-12 99.5,-6 105.5,0 111.5,0 111.5,0 141.5,0 141.5,0 147.5,0 153.5,-6 153.5,-12 153.5,-12 153.5,-24 153.5,-24 153.5,-30 147.5,-36 141.5,-36"/>
<text text-anchor="middle" x="126.5" y="-15.5" font-family="sans" font-size="10.00">all</text>
</g>
<!-- 1 -->
<g id="node2" class="node">
<title>1</title>
<path fill="none" stroke="#d88d56" stroke-width="2" d="M145,-108C145,-108 108,-108 108,-108 102,-108 96,-102 96,-96 96,-96 96,-84 96,-84 96,-78 102,-72 108,-72 108,-72 145,-72 145,-72 151,-72 157,-78 157,-84 157,-84 157,-96 157,-96 157,-102 151,-108 145,-108"/>
<text text-anchor="middle" x="126.5" y="-87.5" font-family="sans" font-size="10.00">split_luts</text>
</g>
<!-- 1&#45;&gt;0 -->
<g id="edge1" class="edge">
<title>1&#45;&gt;0</title>
<path fill="none" stroke="grey" stroke-width="2" d="M126.5,-71.7C126.5,-63.98 126.5,-54.71 126.5,-46.11"/>
<polygon fill="grey" stroke="grey" stroke-width="2" points="130,-46.1 126.5,-36.1 123,-46.1 130,-46.1"/>
</g>
<!-- 2 -->
<g id="node3" class="node">
<title>2</title>
<path fill="none" stroke="#56d873" stroke-width="2" d="M159.5,-180C159.5,-180 93.5,-180 93.5,-180 87.5,-180 81.5,-174 81.5,-168 81.5,-168 81.5,-156 81.5,-156 81.5,-150 87.5,-144 93.5,-144 93.5,-144 159.5,-144 159.5,-144 165.5,-144 171.5,-150 171.5,-156 171.5,-156 171.5,-168 171.5,-168 171.5,-174 165.5,-180 159.5,-180"/>
<text text-anchor="middle" x="126.5" y="-159.5" font-family="sans" font-size="10.00">patch_versions</text>
</g>
<!-- 2&#45;&gt;1 -->
<g id="edge2" class="edge">
<title>2&#45;&gt;1</title>
<path fill="none" stroke="grey" stroke-width="2" d="M126.5,-143.7C126.5,-135.98 126.5,-126.71 126.5,-118.11"/>
<polygon fill="grey" stroke="grey" stroke-width="2" points="130,-118.1 126.5,-108.1 123,-118.1 130,-118.1"/>
</g>
<!-- 3 -->
<g id="node4" class="node">
<title>3</title>
<path fill="none" stroke="#d85656" stroke-width="2" d="M108,-252C108,-252 61,-252 61,-252 55,-252 49,-246 49,-240 49,-240 49,-228 49,-228 49,-222 55,-216 61,-216 61,-216 108,-216 108,-216 114,-216 120,-222 120,-228 120,-228 120,-240 120,-240 120,-246 114,-252 108,-252"/>
<text text-anchor="middle" x="84.5" y="-231.5" font-family="sans" font-size="10.00">merge_luts</text>
</g>
<!-- 3&#45;&gt;2 -->
<g id="edge3" class="edge">
<title>3&#45;&gt;2</title>
<path fill="none" stroke="grey" stroke-width="2" d="M94.88,-215.7C99.76,-207.56 105.69,-197.69 111.08,-188.7"/>
<polygon fill="grey" stroke="grey" stroke-width="2" points="114.09,-190.48 116.24,-180.1 108.09,-186.88 114.09,-190.48"/>
</g>
<!-- 4 -->
<g id="node5" class="node">
<title>4</title>
<path fill="none" stroke="#56d8a9" stroke-width="2" d="M105,-324C105,-324 64,-324 64,-324 58,-324 52,-318 52,-312 52,-312 52,-300 52,-300 52,-294 58,-288 64,-288 64,-288 105,-288 105,-288 111,-288 117,-294 117,-300 117,-300 117,-312 117,-312 117,-318 111,-324 105,-324"/>
<text text-anchor="middle" x="84.5" y="-303.5" font-family="sans" font-size="10.00">write_luts</text>
</g>
<!-- 4&#45;&gt;3 -->
<g id="edge5" class="edge">
<title>4&#45;&gt;3</title>
<path fill="none" stroke="grey" stroke-width="2" d="M84.5,-287.7C84.5,-279.98 84.5,-270.71 84.5,-262.11"/>
<polygon fill="grey" stroke="grey" stroke-width="2" points="88,-262.1 84.5,-252.1 81,-262.1 88,-262.1"/>
</g>
<!-- 5 -->
<g id="node6" class="node">
<title>5</title>
<path fill="none" stroke="#56c9d8" stroke-width="2" d="M121.5,-396C121.5,-396 47.5,-396 47.5,-396 41.5,-396 35.5,-390 35.5,-384 35.5,-384 35.5,-372 35.5,-372 35.5,-366 41.5,-360 47.5,-360 47.5,-360 121.5,-360 121.5,-360 127.5,-360 133.5,-366 133.5,-372 133.5,-372 133.5,-384 133.5,-384 133.5,-390 127.5,-396 121.5,-396"/>
<text text-anchor="middle" x="84.5" y="-375.5" font-family="sans" font-size="10.00">extract_archives</text>
</g>
<!-- 5&#45;&gt;4 -->
<g id="edge6" class="edge">
<title>5&#45;&gt;4</title>
<path fill="none" stroke="grey" stroke-width="2" d="M84.5,-359.7C84.5,-351.98 84.5,-342.71 84.5,-334.11"/>
<polygon fill="grey" stroke="grey" stroke-width="2" points="88,-334.1 84.5,-324.1 81,-334.1 88,-334.1"/>
</g>
<!-- 6 -->
<g id="node7" class="node">
<title>6</title>
<path fill="none" stroke="#d8cb56" stroke-width="2" d="M157,-468C157,-468 12,-468 12,-468 6,-468 0,-462 0,-456 0,-456 0,-444 0,-444 0,-438 6,-432 12,-432 12,-432 157,-432 157,-432 163,-432 169,-438 169,-444 169,-444 169,-456 169,-456 169,-462 163,-468 157,-468"/>
<text text-anchor="middle" x="84.5" y="-447.5" font-family="sans" font-size="10.00">bulk_download_pmc_metadata</text>
</g>
<!-- 6&#45;&gt;5 -->
<g id="edge7" class="edge">
<title>6&#45;&gt;5</title>
<path fill="none" stroke="grey" stroke-width="2" d="M84.5,-431.7C84.5,-423.98 84.5,-414.71 84.5,-406.11"/>
<polygon fill="grey" stroke="grey" stroke-width="2" points="88,-406.1 84.5,-396.1 81,-406.1 88,-406.1"/>
</g>
<!-- 7 -->
<g id="node8" class="node">
<title>7</title>
<path fill="none" stroke="#afd856" stroke-width="2" d="M187,-252C187,-252 150,-252 150,-252 144,-252 138,-246 138,-240 138,-240 138,-228 138,-228 138,-222 144,-216 150,-216 150,-216 187,-216 187,-216 193,-216 199,-222 199,-228 199,-228 199,-240 199,-240 199,-246 193,-252 187,-252"/>
<text text-anchor="middle" x="168.5" y="-231.5" font-family="sans" font-size="10.00">clone_git</text>
</g>
<!-- 7&#45;&gt;2 -->
<g id="edge4" class="edge">
<title>7&#45;&gt;2</title>
<path fill="none" stroke="grey" stroke-width="2" d="M158.12,-215.7C153.24,-207.56 147.31,-197.69 141.92,-188.7"/>
<polygon fill="grey" stroke="grey" stroke-width="2" points="144.91,-186.88 136.76,-180.1 138.91,-190.48 144.91,-186.88"/>
</g>
</g>
</svg>
