<?xml version="1.0" encoding="UTF-8" standalone="no"?>
<!DOCTYPE svg PUBLIC "-//W3C//DTD SVG 1.1//EN"
 "http://www.w3.org/Graphics/SVG/1.1/DTD/svg11.dtd">
<!-- Generated by graphviz version 2.43.0 (0)
 -->
<!-- Title: snakemake_dag Pages: 1 -->
<svg width="177pt" height="260pt"
 viewBox="0.00 0.00 177.00 260.00" xmlns="http://www.w3.org/2000/svg" xmlns:xlink="http://www.w3.org/1999/xlink">
<g id="graph0" class="graph" transform="scale(1 1) rotate(0) translate(4 256)">
<title>snakemake_dag</title>
<polygon fill="white" stroke="transparent" points="-4,4 -4,-256 173,-256 173,4 -4,4"/>
<!-- 0 -->
<g id="node1" class="node">
<title>0</title>
<path fill="none" stroke="#d8bc56" stroke-width="2" d="M99.5,-36C99.5,-36 69.5,-36 69.5,-36 63.5,-36 57.5,-30 57.5,-24 57.5,-24 57.5,-12 57.5,-12 57.5,-6 63.5,0 69.5,0 69.5,0 99.5,0 99.5,0 105.5,0 111.5,-6 111.5,-12 111.5,-12 111.5,-24 111.5,-24 111.5,-30 105.5,-36 99.5,-36"/>
<text text-anchor="middle" x="84.5" y="-15.5" font-family="sans" font-size="10.00">all</text>
</g>
<!-- 1 -->
<g id="node2" class="node">
<title>1</title>
<path fill="none" stroke="#56d88a" stroke-width="2" d="M105,-108C105,-108 64,-108 64,-108 58,-108 52,-102 52,-96 52,-96 52,-84 52,-84 52,-78 58,-72 64,-72 64,-72 105,-72 105,-72 111,-72 117,-78 117,-84 117,-84 117,-96 117,-96 117,-102 111,-108 105,-108"/>
<text text-anchor="middle" x="84.5" y="-87.5" font-family="sans" font-size="10.00">write_luts</text>
</g>
<!-- 1&#45;&gt;0 -->
<g id="edge1" class="edge">
<title>1&#45;&gt;0</title>
<path fill="none" stroke="grey" stroke-width="2" d="M84.5,-71.7C84.5,-63.98 84.5,-54.71 84.5,-46.11"/>
<polygon fill="grey" stroke="grey" stroke-width="2" points="88,-46.1 84.5,-36.1 81,-46.1 88,-46.1"/>
</g>
<!-- 2 -->
<g id="node3" class="node">
<title>2</title>
<path fill="none" stroke="#56c1d8" stroke-width="2" d="M121.5,-180C121.5,-180 47.5,-180 47.5,-180 41.5,-180 35.5,-174 35.5,-168 35.5,-168 35.5,-156 35.5,-156 35.5,-150 41.5,-144 47.5,-144 47.5,-144 121.5,-144 121.5,-144 127.5,-144 133.5,-150 133.5,-156 133.5,-156 133.5,-168 133.5,-168 133.5,-174 127.5,-180 121.5,-180"/>
<text text-anchor="middle" x="84.5" y="-159.5" font-family="sans" font-size="10.00">extract_archives</text>
</g>
<!-- 2&#45;&gt;1 -->
<g id="edge2" class="edge">
<title>2&#45;&gt;1</title>
<path fill="none" stroke="grey" stroke-width="2" d="M84.5,-143.7C84.5,-135.98 84.5,-126.71 84.5,-118.11"/>
<polygon fill="grey" stroke="grey" stroke-width="2" points="88,-118.1 84.5,-108.1 81,-118.1 88,-118.1"/>
</g>
<!-- 3 -->
<g id="node4" class="node">
<title>3</title>
<path fill="none" stroke="#d85656" stroke-width="2" d="M157,-252C157,-252 12,-252 12,-252 6,-252 0,-246 0,-240 0,-240 0,-228 0,-228 0,-222 6,-216 12,-216 12,-216 157,-216 157,-216 163,-216 169,-222 169,-228 169,-228 169,-240 169,-240 169,-246 163,-252 157,-252"/>
<text text-anchor="middle" x="84.5" y="-231.5" font-family="sans" font-size="10.00">bulk_download_pmc_metadata</text>
</g>
<!-- 3&#45;&gt;2 -->
<g id="edge3" class="edge">
<title>3&#45;&gt;2</title>
<path fill="none" stroke="grey" stroke-width="2" d="M84.5,-215.7C84.5,-207.98 84.5,-198.71 84.5,-190.11"/>
<polygon fill="grey" stroke="grey" stroke-width="2" points="88,-190.1 84.5,-180.1 81,-190.1 88,-190.1"/>
</g>
</g>
</svg>
